<svg width="61" height="60" viewBox="0 0 61 60" fill="none" xmlns="http://www.w3.org/2000/svg">
<mask id="path-1-outside-1_1258_3362" maskUnits="userSpaceOnUse" x="11.2828" y="0.292725" width="40" height="58" fill="black">
<rect fill="white" x="11.2828" y="0.292725" width="40" height="58"/>
<path fill-rule="evenodd" clip-rule="evenodd" d="M30.8352 24.1464C36.1113 24.1464 40.3883 19.4781 40.3883 13.7196C40.3883 7.96098 36.1113 3.29272 30.8352 3.29272C25.5592 3.29272 21.2822 7.96098 21.2822 13.7196C21.2822 19.4781 25.5592 24.1464 30.8352 24.1464ZM48.0621 53.8846C47.822 49.6462 45.9694 33.2927 31.6732 33.2927C17.3771 33.2927 15.5245 49.6462 15.2844 53.8846C15.2532 54.436 15.6964 54.8781 16.2487 54.8781H47.0978C47.6501 54.8781 48.0933 54.436 48.0621 53.8846Z"/>
</mask>
<path fill-rule="evenodd" clip-rule="evenodd" d="M30.8352 24.1464C36.1113 24.1464 40.3883 19.4781 40.3883 13.7196C40.3883 7.96098 36.1113 3.29272 30.8352 3.29272C25.5592 3.29272 21.2822 7.96098 21.2822 13.7196C21.2822 19.4781 25.5592 24.1464 30.8352 24.1464ZM48.0621 53.8846C47.822 49.6462 45.9694 33.2927 31.6732 33.2927C17.3771 33.2927 15.5245 49.6462 15.2844 53.8846C15.2532 54.436 15.6964 54.8781 16.2487 54.8781H47.0978C47.6501 54.8781 48.0933 54.436 48.0621 53.8846Z" fill="#F8F3FF"/>
<path d="M48.0621 53.8846L51.0573 53.715L51.0573 53.715L48.0621 53.8846ZM15.2844 53.8846L18.2796 54.0543L18.2796 54.0543L15.2844 53.8846ZM37.3883 13.7196C37.3883 18.0738 34.2127 21.1464 30.8352 21.1464V27.1464C38.0099 27.1464 43.3883 20.8824 43.3883 13.7196H37.3883ZM30.8352 6.29272C34.2127 6.29272 37.3883 9.36528 37.3883 13.7196H43.3883C43.3883 6.55667 38.0099 0.292725 30.8352 0.292725V6.29272ZM24.2822 13.7196C24.2822 9.36528 27.4578 6.29272 30.8352 6.29272V0.292725C23.6606 0.292725 18.2822 6.55667 18.2822 13.7196H24.2822ZM30.8352 21.1464C27.4578 21.1464 24.2822 18.0738 24.2822 13.7196H18.2822C18.2822 20.8824 23.6606 27.1464 30.8352 27.1464V21.1464ZM31.6732 36.2927C37.3473 36.2927 40.508 39.3967 42.4487 43.3274C44.4605 47.402 44.9544 52.0682 45.0669 54.0543L51.0573 53.715C50.9297 51.4627 50.3772 45.8329 47.8287 40.6711C45.2091 35.3655 40.2953 30.2927 31.6732 30.2927V36.2927ZM18.2796 54.0543C18.3921 52.0682 18.886 47.402 20.8978 43.3274C22.8385 39.3967 25.9991 36.2927 31.6732 36.2927V30.2927C23.0511 30.2927 18.1374 35.3655 15.5178 40.6711C12.9692 45.8329 12.4168 51.4627 12.2892 53.715L18.2796 54.0543ZM16.2487 51.8781C17.3118 51.8781 18.3518 52.7788 18.2796 54.0543L12.2892 53.715C12.1545 56.0933 14.081 57.8781 16.2487 57.8781V51.8781ZM47.0978 51.8781H16.2487V57.8781H47.0978V51.8781ZM45.0669 54.0542C44.9946 52.7788 46.0347 51.8781 47.0978 51.8781V57.8781C49.2655 57.8781 51.192 56.0932 51.0573 53.715L45.0669 54.0542Z" fill="black" mask="url(#path-1-outside-1_1258_3362)"/>
</svg>
