<svg width="295" height="300" viewBox="0 0 295 300" fill="none" xmlns="http://www.w3.org/2000/svg">
<g clip-path="url(#clip0_1097_274)">
<rect width="294.118" height="300" rx="147.059" fill="url(#paint0_linear_1097_274)"/>
<path d="M93.1372 209.784C111.111 223.117 129.085 233.784 147.059 233.784C165.032 233.784 183.007 223.117 200.98 209.784C186.165 205.184 178.649 198.317 178.431 189.184C178.431 187.556 178.443 185.244 178.454 180.903C178.454 180.214 178.456 179.508 178.459 178.785C178.488 167.145 178.536 151.785 178.604 136.185C192.655 117.608 187.493 95.8291 183.09 96.3721C177.692 97.0421 130.924 51.7741 121.954 49.4531C112.983 47.1321 90.1961 54.6251 86.2745 75.5001C82.3529 96.3751 80.7137 148.993 95.5882 170C99.8209 175.978 106.488 178.316 115.588 177.015C115.601 181.384 115.626 183.836 115.686 188.784C115.57 198.333 108.054 205.189 93.1372 209.784Z" fill="url(#paint1_linear_1097_274)"/>
<path d="M115.686 177C137.255 174.5 150.98 165 150.98 165C150.98 165 135.294 185 115.686 189V177Z" fill="#FC9F6A"/>
<path d="M185.784 136.5C192.539 119.93 219.608 86.1831 196.275 65.1831C188.431 26.1831 145.098 30.5001 116.177 39.5001C96.7383 45.5491 82.0588 57.5001 78.9216 48.5001C59.3137 65.1831 69.1334 81.5001 82.0589 86.1831C93.7902 90.4331 113.627 94.6831 147.359 90.6831C153.384 89.9681 152.123 108.791 155.342 110.826C160.173 113.879 163.922 94.6831 177.165 100.447C190.408 106.211 182.549 132.937 168.333 132.937C163.431 132.937 160.98 146.684 174.216 153.184C183.824 158 181.395 147.267 185.784 136.5Z" fill="url(#paint2_linear_1097_274)"/>
<path d="M250 240.308C259.333 259.665 264.706 304.308 264.706 304.308H29.4117C29.4117 304.308 34.7863 259.66 44.1176 240.308C53.449 220.956 107.941 203.007 107.941 203.007C138.052 215 156.478 215 186.148 203C186.148 203 240.667 220.951 250 240.308Z" fill="url(#paint3_linear_1097_274)"/>
<path d="M153.922 210L158.823 302H135.294L140.196 210C140.196 210 144.772 205 147.059 205C149.346 205 153.922 210 153.922 210Z" fill="url(#paint4_linear_1097_274)"/>
<path d="M155.038 228.692L139.622 219.606L140.196 210C143.246 206.667 145.534 205 147.059 205C148.584 205 150.871 206.667 153.922 210L155.039 228.692H155.038Z" fill="#645050"/>
<path d="M147.059 204.992L137.255 223L106.863 204L115.686 191L147.059 202.821L178.431 191L187.255 204L156.863 223L147.059 204.992Z" fill="white"/>
</g>
<defs>
<linearGradient id="paint0_linear_1097_274" x1="147.059" y1="0" x2="147.059" y2="300" gradientUnits="userSpaceOnUse">
<stop stop-color="#DEDEDE"/>
</linearGradient>
<linearGradient id="paint1_linear_1097_274" x1="142.276" y1="49.0471" x2="142.276" y2="233.784" gradientUnits="userSpaceOnUse">
<stop stop-color="#F7B186"/>
<stop offset="1" stop-color="#FFC299"/>
</linearGradient>
<linearGradient id="paint2_linear_1097_274" x1="136.706" y1="33.3879" x2="136.706" y2="154.368" gradientUnits="userSpaceOnUse">
<stop stop-color="#1D0024"/>
<stop offset="1" stop-color="#100014"/>
</linearGradient>
<linearGradient id="paint3_linear_1097_274" x1="147.059" y1="203" x2="147.059" y2="304.308" gradientUnits="userSpaceOnUse">
<stop stop-color="#1D0024"/>
<stop offset="1" stop-color="#100014"/>
</linearGradient>
<linearGradient id="paint4_linear_1097_274" x1="147.059" y1="205" x2="147.059" y2="302" gradientUnits="userSpaceOnUse">
<stop stop-color="#806A6A"/>
<stop offset="1" stop-color="#665654"/>
</linearGradient>
<clipPath id="clip0_1097_274">
<rect width="294.118" height="300" rx="147.059" fill="white"/>
</clipPath>
</defs>
</svg>
