<svg width="36" height="37" viewBox="0 0 36 37" fill="none" xmlns="http://www.w3.org/2000/svg">
<path fill-rule="evenodd" clip-rule="evenodd" d="M19.7502 11.0748L22.8495 7.9135C24.1937 6.54245 24.8657 5.85693 25.7058 5.85693C26.5458 5.85693 27.2179 6.54246 28.5621 7.9135L28.8428 8.1998C30.1391 9.52209 30.7873 10.1832 30.7873 11.0001C30.7873 11.8169 30.1391 12.4781 28.8428 13.8004L25.6665 17.0402C23.2164 15.5792 21.1829 13.5225 19.7502 11.0748ZM18.3048 12.5491L7.42664 23.6448L7.42663 23.6448C7.01038 24.0694 6.80226 24.2817 6.66577 24.541C6.52928 24.8002 6.47208 25.092 6.35767 25.6754L5.26187 31.264C5.1966 31.5969 5.16396 31.7634 5.25893 31.8576C5.3539 31.9519 5.52009 31.918 5.85247 31.8502L11.2709 30.7448C11.8662 30.6234 12.1639 30.5626 12.4267 30.4196C12.6896 30.2766 12.9022 30.0597 13.3276 29.6258L24.2302 18.5052C21.8268 16.9871 19.8028 14.9474 18.3048 12.5491Z" fill="#222222"/>
</svg>
