<svg width="24" height="26" viewBox="0 0 24 26" fill="none" xmlns="http://www.w3.org/2000/svg">
<path d="M1.81616 6.25H4.11939M4.11939 6.25H22.5452M4.11939 6.25V22C4.11939 22.5967 4.36205 23.169 4.79399 23.591C5.22593 24.0129 5.81176 24.25 6.42261 24.25H17.9387C18.5496 24.25 19.1354 24.0129 19.5674 23.591C19.9993 23.169 20.242 22.5967 20.242 22V6.25M7.57423 6.25V4C7.57423 3.40326 7.81689 2.83097 8.24883 2.40901C8.68077 1.98705 9.2666 1.75 9.87745 1.75H14.4839C15.0948 1.75 15.6806 1.98705 16.1125 2.40901C16.5445 2.83097 16.7871 3.40326 16.7871 4V6.25M9.87745 11.875V18.625M14.4839 11.875V18.625" stroke="white" stroke-width="2" stroke-linecap="round" stroke-linejoin="round"/>
</svg>
