<svg width="133" height="133" viewBox="0 0 133 133" fill="none" xmlns="http://www.w3.org/2000/svg">
<path d="M107 81.5L107 125.667" stroke="black" stroke-width="7" stroke-linecap="round"/>
<path d="M129 104L84 104" stroke="black" stroke-width="7" stroke-linecap="round"/>
<path d="M37.3333 31.7778L70.6666 31.7778" stroke="black" stroke-width="7" stroke-linecap="round"/>
<path d="M37.3333 87.333L62.3333 87.333" stroke="black" stroke-width="7" stroke-linecap="round"/>
<path d="M37.3333 59.5557L87.3333 59.5557" stroke="black" stroke-width="7" stroke-linecap="round"/>
<path d="M120.667 59.5556V10C120.667 7.17157 120.667 5.75736 119.788 4.87868C118.909 4 117.495 4 114.667 4H10C7.17157 4 5.75736 4 4.87868 4.87868C4 5.75736 4 7.17157 4 10V123C4 125.828 4 127.243 4.87868 128.121C5.75736 129 7.17157 129 10 129H62.3333" stroke="black" stroke-width="7"/>
</svg>
