<svg width="180" height="164" viewBox="0 0 180 164" fill="none" xmlns="http://www.w3.org/2000/svg">
<mask id="path-1-outside-1_1258_3353" maskUnits="userSpaceOnUse" x="39.5205" y="4" width="108" height="151" fill="black">
<rect fill="white" x="39.5205" y="4" width="108" height="151"/>
<path fill-rule="evenodd" clip-rule="evenodd" d="M91 66C106.74 66 119.5 53.2401 119.5 37.5C119.5 21.7599 106.74 9 91 9C75.2599 9 62.5 21.7599 62.5 37.5C62.5 53.2401 75.2599 66 91 66ZM142.479 149.036C142.219 141.402 138.789 91 93.5 91C48.2111 91 44.7811 141.402 44.5213 149.036C44.5025 149.588 44.9477 150 45.5 150H141.5C142.052 150 142.497 149.588 142.479 149.036Z"/>
</mask>
<path fill-rule="evenodd" clip-rule="evenodd" d="M91 66C106.74 66 119.5 53.2401 119.5 37.5C119.5 21.7599 106.74 9 91 9C75.2599 9 62.5 21.7599 62.5 37.5C62.5 53.2401 75.2599 66 91 66ZM142.479 149.036C142.219 141.402 138.789 91 93.5 91C48.2111 91 44.7811 141.402 44.5213 149.036C44.5025 149.588 44.9477 150 45.5 150H141.5C142.052 150 142.497 149.588 142.479 149.036Z" fill="#F8F3FF"/>
<path d="M142.479 149.036L147.476 148.866V148.866L142.479 149.036ZM44.5213 149.036L49.5184 149.206V149.206L44.5213 149.036ZM114.5 37.5C114.5 50.4787 103.979 61 91 61V71C109.502 71 124.5 56.0015 124.5 37.5H114.5ZM91 14C103.979 14 114.5 24.5213 114.5 37.5H124.5C124.5 18.9985 109.502 4 91 4V14ZM67.5 37.5C67.5 24.5213 78.0213 14 91 14V4C72.4985 4 57.5 18.9985 57.5 37.5H67.5ZM91 61C78.0213 61 67.5 50.4787 67.5 37.5H57.5C57.5 56.0015 72.4985 71 91 71V61ZM93.5 96C103.83 96 111.497 98.8521 117.291 103.045C123.143 107.28 127.353 113.08 130.374 119.331C136.468 131.942 137.359 145.615 137.482 149.206L147.476 148.866C147.338 144.822 146.384 129.478 139.377 114.979C135.847 107.675 130.691 100.398 123.154 94.9439C115.559 89.4481 105.815 86 93.5 86V96ZM49.5184 149.206C49.6406 145.615 50.5316 131.942 56.6265 119.331C59.6473 113.08 63.8571 107.28 69.7086 103.045C75.5029 98.8521 83.1705 96 93.5 96V86C81.1851 86 71.4406 89.4481 63.8461 94.9439C56.3088 100.398 51.1532 107.675 47.6229 114.979C40.6156 129.478 39.6618 144.822 39.5242 148.866L49.5184 149.206ZM45.5 145C47.4432 145 49.6067 146.61 49.5184 149.206L39.5242 148.866C39.3983 152.566 42.4522 155 45.5 155V145ZM141.5 145H45.5V155H141.5V145ZM137.482 149.206C137.393 146.61 139.557 145 141.5 145V155C144.548 155 147.602 152.566 147.476 148.866L137.482 149.206Z" fill="black" mask="url(#path-1-outside-1_1258_3353)"/>
</svg>
