<svg width="172" height="200" viewBox="0 0 172 200" fill="none" xmlns="http://www.w3.org/2000/svg">
<path d="M29.0025 94.5335C29.0025 90.6131 29.0025 88.6529 29.7655 87.1556C30.4366 85.8384 31.5074 84.7676 32.8246 84.0965C34.322 83.3335 36.2821 83.3335 40.2025 83.3335H66.5908C68.4885 83.3335 69.4374 83.3335 70.3187 83.567C71.0996 83.774 71.8388 84.1145 72.5036 84.5736C73.2538 85.0917 73.8704 85.8129 75.1036 87.2553L89.7716 104.412C91.0048 105.854 91.6215 106.575 92.3716 107.093C93.0364 107.552 93.7756 107.893 94.5565 108.1C95.4378 108.333 96.3867 108.333 98.2845 108.333H131.797C135.718 108.333 137.678 108.333 139.175 109.096C140.492 109.768 141.563 110.838 142.234 112.156C142.997 113.653 142.997 115.613 142.997 119.533V163.8C142.997 167.721 142.997 169.681 142.234 171.178C141.563 172.495 140.492 173.566 139.175 174.237C137.678 175 135.718 175 131.797 175H40.2025C36.2821 175 34.322 175 32.8246 174.237C31.5074 173.566 30.4366 172.495 29.7655 171.178C29.0025 169.681 29.0025 167.721 29.0025 163.8V94.5335Z" fill="#F8F3FF" stroke="black" stroke-width="6"/>
<path d="M128.748 108.333V58.3335L107.374 33.3335H46.4519C45.3318 33.3335 44.7717 33.3335 44.3439 33.5515C43.9676 33.7432 43.6616 34.0492 43.4699 34.4255C43.2519 34.8533 43.2519 35.4134 43.2519 36.5335V83.3335" stroke="black" stroke-width="6" stroke-linejoin="round"/>
<path d="M93.1246 33.3335V73.4002C93.1246 73.9602 93.1246 74.2402 93.2336 74.4542C93.3295 74.6423 93.4825 74.7953 93.6706 74.8912C93.8846 75.0002 94.1646 75.0002 94.7246 75.0002H128.748" stroke="black" stroke-width="6" stroke-linejoin="round"/>
</svg>
